<svg viewBox="0 0 47 47" xmlns="http://www.w3.org/2000/svg"><g fill-rule="evenodd"><path d="m29.836 12.381c.08-.91.115-1.827.248-2.729a16.145 16.145 0 0 1 1.835-5.464 2.334 2.334 0 0 1 3.581-.888 2.289 2.289 0 0 1 .609 2.96 14.7 14.7 0 0 1 -3.334 4.1c-.871.757-1.821 1.423-2.736 2.13z" fill="#b9a99c"/><path d="m34.6 17.077c.426-.618.83-1.252 1.284-1.849a15.707 15.707 0 0 1 4.811-4.263 2.332 2.332 0 1 1 2.29 4.06 16.645 16.645 0 0 1 -6.948 2.08c-.451.035-.9.067-1.354.1z" fill="#b9a99c"/><path d="m17.185 34.6c-.038.663-.041 1.327-.121 1.982a16.1 16.1 0 0 1 -1.507 5.338 6.172 6.172 0 0 1 -1.211 1.787 2.177 2.177 0 0 1 -2.836-.02 2.3 2.3 0 0 1 -.584-2.944 16.928 16.928 0 0 1 6.1-6.14c.022-.013.057-.003.159-.003z" fill="#b9a99c"/><path d="m23.5 36.255a14.759 14.759 0 0 1 1.887 4.669 25.74 25.74 0 0 1 .453 3.7 2.317 2.317 0 1 1 -4.634.022 17.076 17.076 0 0 1 2.09-8.079c.045-.088.109-.167.204-.312z" fill="#b9a99c"/><path d="m34.689 29.8c1.07.12 2.148.192 3.208.37a14.664 14.664 0 0 1 5.167 1.883 2.3 2.3 0 0 1 1.1 2.478 2.276 2.276 0 0 1 -2.178 1.849 2.976 2.976 0 0 1 -1.428-.414 15.776 15.776 0 0 1 -4.572-4.005c-.5-.622-.937-1.292-1.4-1.94z" fill="#b8a99c"/><path d="m17.069 12.4c-.583-.4-1.182-.775-1.746-1.2a15.258 15.258 0 0 1 -4.35-4.9 2.3 2.3 0 0 1 1.622-3.463 2.326 2.326 0 0 1 2.435 1.188 15.021 15.021 0 0 1 1.785 4.829c.21 1.132.313 2.284.464 3.427z" fill="#b9a99c"/><path d="m23.486 10.665c-.2-.375-.414-.743-.6-1.126a16.073 16.073 0 0 1 -1.686-7.139 2.293 2.293 0 0 1 2.152-2.4 2.271 2.271 0 0 1 2.49 2.29 16.878 16.878 0 0 1 -2.162 8.242 1.451 1.451 0 0 0 -.066.17z" fill="#b9a99c"/><path d="m12.464 29.94c-.61.836-1.187 1.7-1.838 2.5a15.623 15.623 0 0 1 -3.932 3.4 2.5 2.5 0 0 1 -2.534.3 2.163 2.163 0 0 1 -1.311-1.875 2.216 2.216 0 0 1 1.151-2.247 16.34 16.34 0 0 1 6.1-2.034c.747-.1 1.5-.148 2.254-.22z" fill="#b8a99c"/><path d="m29.936 34.571c.691.481 1.408.929 2.067 1.451a16.065 16.065 0 0 1 4.032 4.612 2.428 2.428 0 0 1 -.451 3.017 2.3 2.3 0 0 1 -3.033-.014 3.69 3.69 0 0 1 -.8-1.115 16.532 16.532 0 0 1 -1.784-5.947c-.062-.631-.109-1.263-.163-1.894z" fill="#b8a99c"/><path d="m12.418 17.145c-.841-.053-1.657-.056-2.458-.166a16.329 16.329 0 0 1 -5.926-1.984 2.345 2.345 0 0 1 -1.172-2.458 2.26 2.26 0 0 1 1.686-1.83 2.226 2.226 0 0 1 1.693.179 17.116 17.116 0 0 1 6.136 6.044.936.936 0 0 1 .041.215z" fill="#b8a99c"/><path d="m10.761 23.591c-1.107.471-2.177.989-3.29 1.384a14.164 14.164 0 0 1 -5.259.819 2.3 2.3 0 0 1 -.012-4.594 16.825 16.825 0 0 1 8.1 1.992 3.472 3.472 0 0 1 .341.212c.026.017.035.051.12.187z" fill="#b9a99c"/><path d="m36.254 23.511c.562-.29 1.035-.561 1.529-.784a15.7 15.7 0 0 1 7.045-1.527 2.306 2.306 0 0 1 .474 4.533 8.085 8.085 0 0 1 -2.184.02 17.283 17.283 0 0 1 -6.4-1.969c-.125-.069-.247-.146-.464-.273z" fill="#b8a99c"/><path d="m26.938 23.892a.189.189 0 0 1 .029.026s0 .014 0 .022l-.019-.053z" fill="#04a795"/></g><path d="m21.727 30.6h-.017a1 1 0 0 1 -.819-.453l-3.48-5.323a1 1 0 1 1 1.673-1.094l2.674 4.091 7.742-10.995a1 1 0 0 1 1.634 1.152l-8.6 12.2a1 1 0 0 1 -.807.422z" fill="#333"/></svg>